# AST/ASF file generated using VICON BodyLanguage
# -----------------------------------------------
:version 1.10
:name VICON
:units
  mass 1.0
  length 0.45
  angle deg
:documentation
   .ast/.asf automatically generated from VICON data using
   VICON BodyBuilder and BodyLanguage model FoxedUp or BRILLIANT.MOD
:root
   order TX TY TZ RX RY RZ
   axis XYZ
   position 0 0 0  
   orientation 0 0 0 
:bonedata
  begin
     id 1 
     name lhipjoint
     direction 0.611804 -0.747784 0.257906 
     length 2.29243 
     axis 0 0 0  XYZ
  end
  begin
     id 2 
     name lfemur
     direction 0.34202 -0.939693 0  
     length 7.31159  
     axis 0 0 20  XYZ
    dof rx ry rz
    limits (-160.0 20.0)
           (-70.0 70.0)
           (-60.0 70.0)
  end
  begin
     id 3 
     name ltibia
     direction 0.34202 -0.939693 0   
     length 7.33391   
     axis 0 0 20   XYZ
    dof rx
    limits (-10.0 170.0)
  end
  begin
     id 4 
     name lfoot
     direction 0.122263 -0.335914 0.933924   
     length 1.76083   
     axis -90 7.62852e-016 20   XYZ
    dof rx rz
    limits (-45.0 90.0)
           (-70.0 20.0)
  end
  begin
     id 5 
     name ltoes
     direction 1.53533e-011 -4.2177e-011 1   
     length 0.879206   
     axis -90 7.62852e-016 20   XYZ
    dof rx
    limits (-90.0 20.0)
  end
  begin
     id 6 
     name rhipjoint
     direction -0.646469 -0.721248 0.248754   
     length 2.37677  
     axis 0 0 0  XYZ 
  end
  begin
     id 7 
     name rfemur
     direction -0.34202 -0.939693 0   
     length 7.18623   
     axis 0 0 -20   XYZ
    dof rx ry rz
    limits (-160.0 20.0)
           (-70.0 70.0)
           (-70.0 60.0)
  end
  begin
     id 8 
     name rtibia
     direction -0.34202 -0.939693 0   
     length 7.36567   
     axis 0 0 -20   XYZ
    dof rx
    limits (-10.0 170.0)
 end
 begin
     id 9 
     name rfoot
     direction -0.126681 -0.348054 0.928876   
     length 1.71902  
     axis -90 -7.62852e-016 -20   XYZ
    dof rx rz
    limits (-45.0 90.0)
           (-20.0 70.0)
  end
  begin
     id 10 
     name rtoes
     direction -1.53551e-011 -4.21898e-011 1   
     length 0.857792   
     axis -90 -7.62852e-016 -20   XYZ
    dof rx
    limits (-90.0 20.0)
  end
  begin
     id 11 
     name lowerback
     direction 0.0106509 0.999778 0.0181844   
     length 2.07668   
     axis 0 0 0   XYZ
    dof rx ry rz
    limits (-20.0 45.0)
           (-30.0 30.0)
           (-30.0 30.0)
  end
  begin
     id 12 
     name upperback
     direction -0.00456018 0.999989 -0.000590935   
     length 2.08011   
     axis 0 0 0   XYZ
    dof rx ry rz
    limits (-20.0 45.0)
           (-30.0 30.0)
           (-30.0 30.0)
  end
  begin
     id 13 
     name thorax
     direction -0.00910382 0.999916 -0.00923765   
     length 2.07397   
     axis 0 0 0   XYZ
    dof rx ry rz
    limits (-20.0 45.0)
           (-30.0 30.0)
           (-30.0 30.0)
  end
  begin
     id 14 
     name lowerneck
     direction 0.00171967 0.99778 0.0665733   
     length 1.67556   
     axis 0 0 0   XYZ
    dof rx ry rz
    limits (-20.0 45.0)
           (-30.0 30.0)
           (-30.0 30.0)
  end
  begin
     id 15 
     name upperneck
     direction -0.0143166 0.991302 -0.130828   
     length 1.68462   
     axis 0 0 0   XYZ
    dof rx ry rz
    limits (-20.0 45.0)
           (-30.0 30.0)
           (-30.0 30.0)
  end
  begin
     id 16
     name head
     direction -0.00606378 0.998665 -0.0512995  
     length 1.69269  
     axis 0 0 0   XYZ
    dof rx ry rz
    limits (-20.0 45.0)
           (-30.0 30.0)
           (-30.0 30.0)
  end
  begin
     id 17 
     name lclavicle
     direction 0.9638 0.179341 0.197297  
     length 4.12888  
     axis 0 0 0   XYZ
    dof ry rz
    limits (-20.0 10.0)
           (0.0 20.0)
  end
  begin
     id 18 
     name lhumerus
     direction 1 -4.48972e-011 -2.47351e-027   
     length 5.01834   
     axis -180 -30 -90   XYZ
    dof rx ry rz
    limits (-60.0 90.0)
           (-90.0 90.0)
           (-90.0 90.0)
  end
  begin
     id 19
     name lradius
     direction 1 -4.48965e-011 1.51591e-026   
     length 3.4869   
     axis -180 -30 -90   XYZ
    dof rx
    limits (-10.0 170.0)
  end
  begin
     id 20
     name lwrist
     direction 1 -4.48957e-011 2.70032e-026   
     length 1.74345   
     axis -1.81515e-014 90 90   XYZ
    dof ry
    limits (-180.0 0.0)
 end
  begin
     id 21 
     name lhand
     direction 1 -4.48951e-011 5.40064e-026   
     length 0.76799   
     axis -3.44607e-014 90 90   XYZ
    dof rx rz
    limits (-90.0 90.0)
           (-45.0 45.0)
  end
  begin
     id 22 
     name lfingers
     direction 1 -4.48971e-011 1.08013e-025   
     length 0.619174   
     axis -6.89214e-014 90 90   XYZ
    dof rx
    limits (0.0 90.0)
  end
  begin
     id 23
     name lthumb
     direction 0.707107 -6.34931e-011 0.707107   
     length 0.889013   
     axis -90 45 2.85299e-015   XYZ
    dof rx rz
    limits (-45.0 45.0)
           (-45.0 45.0)
  end
  begin
     id 24 
     name rclavicle
     direction -0.961409 0.252588 0.109054   
     length 4.04305  
     axis 0 0 0   XYZ 
    dof ry rz
    limits (-10.0 20.0)
           (-20.0 0.0)
  end
  begin
     id 25 
     name rhumerus
     direction -1 -4.4897e-011 1.33872e-017  
     length 4.70164   
     axis -180 30 90   XYZ
    dof rx ry rz
    limits (-90.0 60.0)
           (-90.0 90.0)
           (-90.0 90.0)
  end
  begin
     id 26 
     name rradius
     direction -1 -4.48954e-011 1.83844e-026   
     length 3.49911   
     axis -180 30 90   XYZ
    dof rx
    limits (-10.0 170.0)
  end
  begin
     id 27 
     name rwrist
     direction -1 -4.49008e-011 2.70032e-026   
     length 1.74955   
     axis -1.81515e-014 -90 -90   XYZ
    dof ry
    limits (-180.0 0.0)
  end
  begin
     id 28
     name rhand
     direction -1 -4.48916e-011 5.40064e-026   
     length 0.739335   
     axis -3.44607e-014 -90 -90   XYZ
    dof rx rz
    limits (-90.0 90.0)
           (-45.0 45.0)
  end
  begin
     id 29
     name rfingers
     direction -1 -4.48987e-011 1.08013e-025   
     length 0.596071   
     axis -6.89214e-014 -90 -90   XYZ
    dof rx
    limits (0.0 90.0)
  end
  begin
     id 30
     name rthumb
     direction -0.707107 -6.34935e-011 0.707107   
     length 0.855843   
     axis -90 -45 -2.85299e-015   XYZ
    dof rx rz
    limits (-45.0 45.0)
           (-45.0 45.0)
  end
:hierarchy
  begin
    root lhipjoint rhipjoint lowerback
    lhipjoint lfemur
    lfemur ltibia
    ltibia lfoot
    lfoot ltoes
    rhipjoint rfemur
    rfemur rtibia
    rtibia rfoot
    rfoot rtoes
    lowerback upperback
    upperback thorax
    thorax lowerneck lclavicle rclavicle
    lowerneck upperneck
    upperneck head
    lclavicle lhumerus
    lhumerus lradius
    lradius lwrist
    lwrist lhand lthumb
    lhand lfingers
    rclavicle rhumerus
    rhumerus rradius
    rradius rwrist
    rwrist rhand rthumb
    rhand rfingers
  end

#!OML:ASF I:\salsa\salsa 7_09\Patient 1\Session 1\dancermale.ASF
:FULLY-SPECIFIED
:DEGREES
610
root -7.58868 17.0061 2.30147 366.865 85.0631 715.93
lowerback -5.68504 -2.14993 -0.473801
upperback 0.0117094 -2.81381 -0.426191
thorax 3.1983 -1.40155 -0.408206
lowerneck -17.958 -4.67871 3.91038
upperneck 15.2971 61.0116 13.0582
head 214.462 -230.724 -364.714
rclavicle 1.87852e-014 7.95139e-016
rhumerus -36.5543 43.8833 -114.545
rradius 103.835
rwrist 18.6935
rhand -34.5125 17.9089
rfingers 7.12502
rthumb -7.67426 -11.9319
lclavicle 1.87852e-014 7.95139e-016
lhumerus -55.5538 -24.7901 108.396
lradius 93.1266
lwrist 16.8375
lhand -17.3103 42.7022
lfingers 7.12502
lthumb 8.93588 792.493
rfemur -2.19869 0.701654 23.5272
rtibia 26.5944
rfoot -20.0119 -16.0378
rtoes -2.29232
lfemur -36.512 5.14713 -18.7193
ltibia 48.6321
lfoot -21.009 6.13595
ltoes -13.6891
611
root -7.63654 16.984 2.33235 361.379 85.1174 710.599
lowerback -5.24215 -1.67973 -0.447857
upperback 0.0362613 -2.20588 -0.0543046
thorax 2.98968 -1.10274 0.0244301
lowerneck -17.9642 -5.05339 3.41496
upperneck 15.2922 60.7982 13.0492
head 214.426 -231.297 -364.827
rclavicle 9.79014e-015 1.86858e-014
rhumerus -35.606 43.7683 -115.639
rradius 102.825
rwrist 18.9602
rhand -34.8014 18.0581
rfingers 7.12502
rthumb -7.9531 -11.7723
lclavicle 9.79014e-015 1.86858e-014
lhumerus -56.8073 -24.5861 107.936
lradius 93.6888
lwrist 16.937
lhand -17.5013 42.544
lfingers 7.12502
lthumb 8.75164 792.343
rfemur -1.4142 0.668734 24.2763
rtibia 25.2784
rfoot -20.4597 -16.3248
rtoes -1.90745
lfemur -37.6141 5.16671 -18.3647
ltibia 50.8257
lfoot -21.1982 6.50152
ltoes -14.8713
612
root -7.67073 16.9606 2.35656 355.281 85.0161 704.665
lowerback -5.05262 -1.10128 -0.266074
upperback 0.211907 -1.45911 0.303652
thorax 3.06511 -0.731867 0.350482
lowerneck -18.0733 -5.59157 3.00159
upperneck 14.7983 60.242 12.5409
head 214.453 -231.457 -364.544
rclavicle 1.15295e-014 2.38542e-015
rhumerus -34.5506 43.7481 -116.382
rradius 101.791
rwrist 18.9979
rhand -34.893 17.704
rfingers 7.12502
rthumb -8.04152 -12.123
lclavicle 1.15295e-014 2.38542e-015
lhumerus -57.7025 -24.7261 107.405
lradius 94.3781
lwrist 17.1451
lhand -16.6909 43.221
lfingers 7.12502
lthumb 9.53363 792.985
rfemur -0.638938 0.695803 25.0849
rtibia 24.0421
rfoot -20.7671 -16.7381
rtoes -1.83853
lfemur -38.5603 5.38371 -18.0565
ltibia 52.8714
lfoot -21.0793 8.04631
ltoes -15.3292
613
root -7.68926 16.9335 2.37381 350 84.9322 699.632
lowerback -5.36783 -0.485733 0.138394
upperback 0.762279 -0.673026 0.455117
thorax 3.80092 -0.335891 0.334107
lowerneck -18.4834 -6.24447 2.93689
upperneck 13.8793 59.4331 11.6519
head 214.653 -231.176 -363.854
rclavicle -2.21148e-015 7.95139e-016
rhumerus -32.991 43.6477 -116.759
rradius 100.676
rwrist 18.8688
rhand -34.7819 17.152
rfingers 7.12502
rthumb -7.93423 -12.6791
lclavicle -2.21148e-015 7.95139e-016
lhumerus -57.9535 -25.3827 106.441
lradius 95.0807
lwrist 17.324
lhand -15.5518 44.5581
lfingers 7.12502
lthumb 10.6325 794.269
rfemur 0.251986 0.67476 25.7589
rtibia 22.8872
rfoot -21.1013 -17.0911
rtoes -2.00122
lfemur -39.2266 5.48358 -17.8222
ltibia 54.6008
lfoot -21.0449 9.18369
ltoes -14.348
614
root -7.69015 16.9081 2.38169 352.373 84.9031 702.275
lowerback -5.0154 0.174637 -0.424617
upperback 0.754587 0.23645 0.700106
thorax 3.58599 0.102417 0.978955
lowerneck -18.3181 -7.14495 2.55668
upperneck 12.9815 58.3452 10.625
head 214.71 -230.52 -362.992
rclavicle 5.00068e-015 1.26228e-014
rhumerus -33.0265 43.0964 -117.525
rradius 99.6535
rwrist 18.4762
rhand -35.1132 17.2204
rfingers 7.12502
rthumb -8.25404 -12.5983
lclavicle 5.00068e-015 1.26228e-014
lhumerus -58.9826 -25.7355 106.365
lradius 95.8852
lwrist 17.6016
lhand -14.6 45.3235
lfingers 7.12502
lthumb 11.5505 794.985
rfemur 1.13043 0.682012 25.5379
rtibia 21.8489
rfoot -21.415 -17.2515
rtoes -2.01285
lfemur -39.5809 5.37482 -18.2813
ltibia 55.8271
lfoot -21.2316 9.06952
ltoes -14.0384
615
root -7.67902 16.8776 2.38641 350.351 84.8817 700.392
lowerback -4.80848 0.898514 -0.442742
upperback 0.690741 1.19671 0.940737
thorax 3.37853 0.579384 1.30885
lowerneck -18.093 -7.97616 2.03863
upperneck 12.4094 57.2467 10.0345
head 214.604 -230.471 -362.635
rclavicle 3.3048e-015 -7.30534e-015
rhumerus -33.1938 42.2486 -118.189
rradius 98.5962
rwrist 17.9274
rhand -35.4641 17.5096
rfingers 7.12502
rthumb -8.59271 -12.2955
lclavicle 3.3048e-015 -7.30534e-015
lhumerus -59.9275 -26.4156 106.259
lradius 96.8295
lwrist 18.3861
lhand -14.1388 45.0273
lfingers 7.12502
lthumb 11.9952 794.664
rfemur 1.83789 0.597622 25.7049
rtibia 20.9608
rfoot -21.6706 -17.2217
rtoes -2.29097
lfemur -39.94 5.2097 -18.2365
ltibia 56.7445
lfoot -21.5308 8.08392
ltoes -15.7103
616
root -7.66687 16.8466 2.37655 349.521 85.0066 699.553
lowerback -4.41463 1.64442 -0.280945
upperback 0.404219 2.18489 0.977686
thorax 2.8409 1.07905 1.31062
lowerneck -17.7063 -8.67342 1.36303
upperneck 12.3607 56.3876 10.0741
head 214.363 -231.248 -362.932
rclavicle 1.39646e-014 1.96797e-014
rhumerus -33.5922 40.9003 -118.84
rradius 97.4048
rwrist 17.8242
rhand -35.4169 17.5916
rfingers 7.12502
rthumb -8.54714 -12.2154
lclavicle 1.39646e-014 1.96797e-014
lhumerus -61.0567 -27.4157 106.244
lradius 97.9924
lwrist 19.402
lhand -14.8943 44.5923
lfingers 7.12502
lthumb 11.2667 794.27
rfemur 2.20916 0.317687 25.6088
rtibia 20.4313
rfoot -21.9221 -16.9825
rtoes -2.8991
lfemur -40.3773 4.93761 -18.428
ltibia 57.5058
lfoot -22.0796 7.19511
ltoes -18.1664
617
root -7.64139 16.8129 2.36155 345.504 85.1347 695.281
lowerback -4.31469 2.35135 0.259734
upperback 0.0538847 3.10527 0.996865
thorax 2.42991 1.54947 1.07449
lowerneck -17.3733 -9.36368 0.763346
upperneck 12.2583 55.5681 10.0639
head 214.246 -232.067 -363.042
rclavicle -4.32357e-015 3.77691e-015
rhumerus -34.1177 39.4792 -119.501
rradius 95.9795
rwrist 17.4124
rhand -35.2873 17.7964
rfingers 7.12502
rthumb -8.422 -12.0156
lclavicle -4.32357e-015 3.77691e-015
lhumerus -62.0738 -28.6205 106.2
lradius 99.3156
lwrist 20.6818
lhand -16.3898 44.3917
lfingers 7.12502
lthumb 9.82412 794.143
rfemur 2.14737 0.100207 25.8364
rtibia 20.3368
rfoot -22.0458 -16.8204
rtoes -3.98904
lfemur -40.9365 4.66342 -18.3422
ltibia 58.1712
lfoot -22.739 7.04737
ltoes -20.9403
618
root -7.6025 16.7808 2.34183 339.922 85.2618 689.523
lowerback -4.36062 2.92001 0.806637
upperback -0.136302 3.83879 1.1197
thorax 2.27623 1.92319 0.93808
lowerneck -17.0583 -10.1227 0.431936
upperneck 11.9166 54.7139 9.70057
head 214.369 -232.197 -362.515
rclavicle -2.06736e-014 1.15295e-014
rhumerus -34.512 38.5628 -119.895
rradius 94.2353
rwrist 16.5527
rhand -35.3201 17.6882
rfingers 7.12502
rthumb -8.45372 -12.1226
lclavicle -2.06736e-014 1.15295e-014
lhumerus -62.4691 -29.6353 106.05
lradius 100.619
lwrist 22.1783
lhand -17.08 44.5382
lfingers 7.12502
lthumb 9.15814 794.319
rfemur 2.04282 0.0317948 26.1961
rtibia 20.5774
rfoot -22.1223 -16.7067
rtoes -5.04965
lfemur -41.0852 4.26504 -18.0661
ltibia 58.3673
lfoot -22.9896 7.30156
ltoes -22.7603
619
root -7.54934 16.7518 2.31363 334.367 85.4613 683.736
lowerback -4.36306 3.39391 1.38129
upperback -0.45754 4.45145 1.15736
thorax 1.9826 2.23605 0.683968
lowerneck -16.601 -10.8337 0.186796
upperneck 11.7409 53.9881 9.47287
head 214.462 -232.176 -362.088
rclavicle -1.6847e-014 1.55052e-014
rhumerus -35.0607 37.7491 -120.331
rradius 92.1824
rwrist 15.8581
rhand -35.4663 17.3812
rfingers 7.12502
rthumb -8.59475 -12.4239
lclavicle -1.6847e-014 1.55052e-014
lhumerus -62.8897 -30.5845 106.012
lradius 102.003
lwrist 23.6613
lhand -17.3709 45.0902
lfingers 7.12502
lthumb 8.87744 794.883
rfemur 1.75232 0.13886 26.4837
rtibia 21.1175
rfoot -22.2496 -16.6342
rtoes -5.59126
lfemur -40.9579 3.76451 -17.7965
ltibia 58.1391
lfoot -23.0845 7.09868
ltoes -22.2093
